<svg width="64" height="64" viewBox="0 0 64 64" fill="none" xmlns="http://www.w3.org/2000/svg">
<path d="M53.42 53.3199H10.58C8.32646 53.3173 6.16599 52.4209 4.5725 50.8274C2.97902 49.2339 2.08263 47.0735 2.07999 44.8199V19.1799C2.08263 16.9264 2.97902 14.7659 4.5725 13.1724C6.16599 11.579 8.32646 10.6826 10.58 10.6799H53.42C55.6735 10.6826 57.834 11.579 59.4275 13.1724C61.021 14.7659 61.9173 16.9264 61.92 19.1799V44.8199C61.9173 47.0735 61.021 49.2339 59.4275 50.8274C57.834 52.4209 55.6735 53.3173 53.42 53.3199ZM10.58 13.6799C9.1213 13.6799 7.72235 14.2594 6.6909 15.2908C5.65945 16.3223 5.07999 17.7212 5.07999 19.1799V44.8199C5.07999 46.2786 5.65945 47.6776 6.6909 48.709C7.72235 49.7405 9.1213 50.3199 10.58 50.3199H53.42C54.8787 50.3199 56.2776 49.7405 57.3091 48.709C58.3405 47.6776 58.92 46.2786 58.92 44.8199V19.1799C58.92 17.7212 58.3405 16.3223 57.3091 15.2908C56.2776 14.2594 54.8787 13.6799 53.42 13.6799H10.58Z" fill="#C6A87D"/>
<path d="M32 38.08C30.1496 38.0829 28.3486 37.4825 26.87 36.37L3.52001 18.71C3.35503 18.5942 3.21508 18.4463 3.10852 18.2753C3.00195 18.1042 2.93096 17.9134 2.89977 17.7142C2.86859 17.5151 2.87786 17.3117 2.92703 17.1163C2.97619 16.9208 3.06425 16.7373 3.18593 16.5766C3.30761 16.4159 3.46043 16.2814 3.63526 16.1811C3.81008 16.0808 4.00333 16.0168 4.20346 15.9928C4.40358 15.9689 4.60649 15.9855 4.80004 16.0417C4.9936 16.0979 5.17385 16.1925 5.33001 16.32L28.68 34C29.6389 34.7158 30.8034 35.1025 32 35.1025C33.1966 35.1025 34.3611 34.7158 35.32 34L58.67 16.32C58.8262 16.1925 59.0064 16.0979 59.2 16.0417C59.3935 15.9855 59.5964 15.9689 59.7966 15.9928C59.9967 16.0168 60.1899 16.0808 60.3648 16.1811C60.5396 16.2814 60.6924 16.4159 60.8141 16.5766C60.9358 16.7373 61.0238 16.9208 61.073 17.1163C61.1222 17.3117 61.1314 17.5151 61.1003 17.7142C61.0691 17.9134 60.9981 18.1042 60.8915 18.2753C60.7849 18.4463 60.645 18.5942 60.48 18.71L37.13 36.37C35.6514 37.4825 33.8504 38.0829 32 38.08Z" fill="#C6A87D"/>
<path d="M4.16999 49.14C3.86576 49.1404 3.56859 49.0484 3.31791 48.876C3.06722 48.7036 2.87488 48.4591 2.76639 48.1749C2.65791 47.8906 2.63842 47.5801 2.7105 47.2846C2.78258 46.989 2.94283 46.7224 3.16999 46.52L21.57 30.11C21.867 29.8448 22.2573 29.7084 22.6548 29.7309C23.0524 29.7534 23.4248 29.9329 23.69 30.23C23.9552 30.527 24.0916 30.9173 24.0691 31.3148C24.0466 31.7124 23.867 32.0848 23.57 32.35L5.16999 48.76C4.89674 49.0086 4.5394 49.1444 4.16999 49.14ZM59.83 49.14C59.4606 49.1444 59.1032 49.0086 58.83 48.76L40.43 32.35C40.1329 32.0848 39.9534 31.7124 39.9309 31.3148C39.9084 30.9173 40.0448 30.527 40.31 30.23C40.5752 29.9329 40.9476 29.7534 41.3451 29.7309C41.7427 29.7084 42.1329 29.8448 42.43 30.11L60.82 46.52C61.0471 46.7224 61.2074 46.989 61.2795 47.2846C61.3516 47.5801 61.3321 47.8906 61.2236 48.1749C61.1151 48.4591 60.9228 48.7036 60.6721 48.876C60.4214 49.0484 60.1242 49.1404 59.82 49.14H59.83Z" fill="#C6A87D"/>
</svg>
