<svg width="40" height="40" viewBox="0 0 40 40" fill="none" xmlns="http://www.w3.org/2000/svg">
<path d="M38.1737 29.0189C36.5148 27.3146 31.7995 24.1218 28.709 24.1218C27.9932 24.1218 27.3683 24.2809 26.857 24.6104C25.3458 25.5762 24.1415 26.3261 23.562 26.3261C23.2438 26.3261 22.903 26.042 22.1531 25.3944L22.0281 25.2808C19.9488 23.4742 19.5057 23.0083 18.699 22.1675L18.4945 21.9517C18.3468 21.8039 18.2218 21.6676 18.0968 21.5426C17.3923 20.8154 16.881 20.2928 15.0745 18.2476L14.9949 18.1567C14.1314 17.1796 13.5633 16.5433 13.5292 16.0774C13.4951 15.6229 13.8928 14.8844 14.904 13.5096C16.1311 11.8507 16.1766 9.80553 15.0517 7.43084C14.1541 5.55609 12.6884 3.76087 11.3931 2.18153L11.2795 2.04519C10.166 0.681728 8.87073 0 7.42774 0C5.82568 0 4.49631 0.863522 3.79186 1.31801C3.73505 1.35209 3.67824 1.39754 3.62143 1.43163C2.04209 2.4315 0.894512 3.80632 0.462751 5.20386C-0.184891 7.30586 -0.616652 10.0328 2.48521 15.7025C5.16668 20.6109 7.59818 23.9059 11.4613 27.8713C15.0972 31.5981 16.7106 32.8025 20.3238 35.4158C24.346 38.3245 28.2091 39.9947 30.9133 39.9947C33.4243 39.9947 35.4013 39.9947 38.2191 36.5975C41.1733 33.0297 39.9462 30.8482 38.1737 29.0189ZM36.867 35.3703C34.5946 38.12 33.288 38.12 30.9246 38.12C28.6181 38.12 25.0391 36.5293 21.3577 33.8819C17.8355 31.3368 16.2675 30.1665 12.7339 26.542C8.99572 22.7129 6.64375 19.5202 4.05319 14.7821C1.31491 9.77144 1.62169 7.57855 2.17843 5.77197C2.47385 4.80618 3.3601 3.77223 4.56448 3.02233C4.62129 2.98824 4.6781 2.94279 4.74628 2.90871C5.34847 2.52239 6.34834 1.87475 7.4391 1.87475C8.34808 1.87475 9.15479 2.32924 9.92741 3.2723L10.041 3.40864C12.9384 6.95363 15.1994 10.0896 13.4951 12.4075C12.2907 14.0322 11.6545 15.1344 11.7567 16.2706C11.8476 17.3727 12.5862 18.2021 13.6996 19.452L13.7792 19.5429C15.6085 21.6108 16.1311 22.1562 16.8583 22.8947C16.9833 23.0197 17.1083 23.156 17.256 23.3037L17.4605 23.5196C18.3013 24.3945 18.7672 24.8717 20.9032 26.7465L21.0282 26.8601C21.9372 27.6554 22.6076 28.2349 23.5847 28.2349C24.5959 28.2349 25.7094 27.5986 27.8228 26.2465C28.0387 26.1102 28.3454 26.0307 28.7318 26.0307C31.1973 26.0307 35.4468 28.8485 36.9352 30.3824C38.2987 31.7685 38.9804 32.8139 36.867 35.3703Z" fill="#C6A87D"/>
</svg>
