<svg width="24" height="24" viewBox="0 0 24 24" fill="none" xmlns="http://www.w3.org/2000/svg">
<g clip-path="url(#clip0_307_2)">
<path d="M11.9874 6.23543C8.65591 6.23543 5.96874 8.84796 5.96874 12.0869C5.96874 15.3258 8.65591 17.9383 11.9874 17.9383C15.3188 17.9383 18.006 15.3258 18.006 12.0869C18.006 8.84796 15.3188 6.23543 11.9874 6.23543ZM11.9874 15.8911C9.83449 15.8911 8.07447 14.1851 8.07447 12.0869C8.07447 9.98871 9.82925 8.28268 11.9874 8.28268C14.1455 8.28268 15.9003 9.98871 15.9003 12.0869C15.9003 14.1851 14.1402 15.8911 11.9874 15.8911ZM19.656 5.99608C19.656 6.75488 19.0274 7.36091 18.2522 7.36091C17.4717 7.36091 16.8484 6.74979 16.8484 5.99608C16.8484 5.24237 17.477 4.63125 18.2522 4.63125C19.0274 4.63125 19.656 5.24237 19.656 5.99608ZM23.6423 7.38128C23.5532 5.55302 23.1237 3.93356 21.746 2.59928C20.3736 1.26501 18.7079 0.847414 16.8274 0.755746C14.8893 0.648801 9.0802 0.648801 7.14208 0.755746C5.26683 0.842321 3.60109 1.25992 2.22346 2.59419C0.845829 3.92846 0.421538 5.54793 0.327252 7.37619C0.217251 9.26047 0.217251 14.9082 0.327252 16.7925C0.4163 18.6207 0.845829 20.2402 2.22346 21.5745C3.60109 22.9088 5.26159 23.3264 7.14208 23.418C9.0802 23.525 14.8893 23.525 16.8274 23.418C18.7079 23.3314 20.3736 22.9138 21.746 21.5745C23.1184 20.2402 23.548 18.6207 23.6423 16.7925C23.7523 14.9082 23.7523 9.26556 23.6423 7.38128ZM21.1384 18.8143C20.7298 19.8124 19.9389 20.5814 18.907 20.9837C17.3617 21.5796 13.695 21.4421 11.9874 21.4421C10.2797 21.4421 6.60779 21.5745 5.06778 20.9837C4.0411 20.5865 3.25014 19.8175 2.83632 18.8143C2.22346 17.3119 2.36489 13.7471 2.36489 12.0869C2.36489 10.4267 2.2287 6.85674 2.83632 5.3595C3.2449 4.36134 4.03586 3.59235 5.06778 3.19003C6.61303 2.59419 10.2797 2.73169 11.9874 2.73169C13.695 2.73169 17.3669 2.59928 18.907 3.19003C19.9336 3.58726 20.7246 4.35625 21.1384 5.3595C21.7513 6.86183 21.6098 10.4267 21.6098 12.0869C21.6098 13.7471 21.7513 17.317 21.1384 18.8143Z" fill="white"/>
</g>
<defs>
<clipPath id="clip0_307_2">
<rect width="24" height="23" fill="white" transform="translate(0 0.5)"/>
</clipPath>
</defs>
</svg>
