<svg width="50" height="48" viewBox="0 0 50 48" fill="none" xmlns="http://www.w3.org/2000/svg">
<g clip-path="url(#clip0_307_33)">
<path d="M0 5.55025C0 3.94147 0.563079 2.61425 1.68919 1.56859C2.8153 0.522889 4.2793 6.10352e-05 6.08108 6.10352e-05C7.85072 6.10352e-05 9.28248 0.514829 10.3764 1.54446C11.5026 2.60624 12.0656 3.98973 12.0656 5.69504C12.0656 7.23944 11.5187 8.52641 10.4247 9.55605C9.2986 10.6178 7.81853 11.1487 5.98456 11.1487H5.93629C4.16665 11.1487 2.73489 10.6178 1.64093 9.55605C0.546959 8.49427 0 7.15899 0 5.55025ZM0.627413 47.78V15.5406H11.3417V47.78H0.627413ZM17.278 47.78H27.9923V29.7781C27.9923 28.6519 28.121 27.7832 28.3784 27.1719C28.8288 26.0779 29.5125 25.1529 30.4295 24.3968C31.3465 23.6406 32.4968 23.2626 33.8803 23.2626C37.4839 23.2626 39.2857 25.6918 39.2857 30.5503V47.78H50V29.2954C50 24.5335 48.8739 20.9219 46.6216 18.4605C44.3694 15.9991 41.3932 14.7684 37.693 14.7684C33.5425 14.7684 30.3089 16.5541 27.9923 20.1255V20.2221H27.944L27.9923 20.1255V15.5406H17.278C17.3423 16.5702 17.3745 19.7716 17.3745 25.1448C17.3745 30.5181 17.3423 38.0631 17.278 47.78Z" fill="white"/>
</g>
<defs>
<clipPath id="clip0_307_33">
<rect width="50" height="47.78" fill="white"/>
</clipPath>
</defs>
</svg>
