<svg width="33" height="32" viewBox="0 0 33 32" fill="none" xmlns="http://www.w3.org/2000/svg">
<path d="M27.5 5H5.5C4.70435 5 3.94129 5.31607 3.37868 5.87868C2.81607 6.44129 2.5 7.20435 2.5 8V8.4L16.14 15.73C16.2634 15.7823 16.396 15.8092 16.53 15.8092C16.664 15.8092 16.7966 15.7823 16.92 15.73L30.5 8.4V8C30.5 7.20435 30.1839 6.44129 29.6213 5.87868C29.0587 5.31607 28.2956 5 27.5 5ZM30.18 25.32C30.3862 24.9102 30.4956 24.4587 30.5 24V10.67L21.4 15.56L30.18 25.32ZM2.5 10.67V24C2.50435 24.4587 2.61382 24.9102 2.82 25.32L11.6 15.56L2.5 10.67ZM17.81 17.49C17.3938 17.6856 16.9399 17.788 16.48 17.79C16.0521 17.7895 15.6294 17.6974 15.24 17.52L13.41 16.52L4.26 26.72C4.64859 26.9008 5.07141 26.9963 5.5 27H27.5C27.932 26.9977 28.3584 26.9022 28.75 26.72L19.58 16.54L17.81 17.49Z" fill="#C6A87D"/>
</svg>
