<svg width="30" height="29" viewBox="0 0 30 29" fill="none" xmlns="http://www.w3.org/2000/svg">
<path d="M21.414 17.743L19.323 18.921C19.072 19.0623 18.7818 19.1175 18.4965 19.0784C18.2112 19.0392 17.9465 18.9077 17.743 18.704L10.764 11.725C10.5604 11.5214 10.4291 11.2568 10.3899 10.9715C10.3507 10.6862 10.4059 10.396 10.547 10.145L11.725 8.05402C11.937 7.67769 12.02 7.24228 11.9614 6.81432C11.9027 6.38637 11.7055 5.98938 11.4 5.68402L8.26598 2.55002C8.0823 2.36625 7.8642 2.22046 7.62415 2.121C7.38411 2.02153 7.12682 1.97034 6.86698 1.97034C6.60715 1.97034 6.34986 2.02153 6.10981 2.121C5.86977 2.22046 5.65167 2.36625 5.46798 2.55002L4.04498 3.97202C3.21286 4.80413 2.68281 5.89056 2.53912 7.05855C2.39543 8.22653 2.64635 9.40904 3.25198 10.418L3.96598 11.608C7.61222 17.685 12.7588 22.723 18.912 26.239L19.053 26.32C21.155 27.521 23.752 27.171 25.435 25.489L26.921 24.003C27.1048 23.8193 27.2505 23.6012 27.35 23.3612C27.4495 23.1211 27.5007 22.8639 27.5007 22.604C27.5007 22.3442 27.4495 22.0869 27.35 21.8469C27.2505 21.6068 27.1048 21.3887 26.921 21.205L23.785 18.069C23.4797 17.7631 23.0826 17.5656 22.6544 17.5067C22.2262 17.4479 21.7905 17.5309 21.414 17.743Z" fill="#C6A87D"/>
</svg>
