<svg width="14" height="14" viewBox="0 0 14 14" fill="none" xmlns="http://www.w3.org/2000/svg">
<g clip-path="url(#clip0_314_46)">
<path d="M13.2459 12.421L9.93531 9.11039C10.6802 8.18076 11.0852 7.02461 11.0833 5.83337C11.0833 2.93392 8.73292 0.583374 5.83331 0.583374C2.93385 0.583374 0.583313 2.93392 0.583313 5.83337C0.583313 8.73283 2.93385 11.0834 5.83331 11.0834C7.0729 11.0834 8.21215 10.6537 9.11033 9.93523L12.4209 13.2458C12.475 13.3 12.5393 13.3431 12.6101 13.3724C12.6808 13.4017 12.7567 13.4168 12.8333 13.4167C12.9487 13.4167 13.0615 13.3825 13.1574 13.3184C13.2533 13.2543 13.3281 13.1632 13.3722 13.0567C13.4164 12.9501 13.428 12.8328 13.4055 12.7196C13.383 12.6065 13.3274 12.5025 13.2459 12.421ZM5.83331 9.91671C3.57815 9.91671 1.74998 8.08854 1.74998 5.83337C1.74998 3.57821 3.57815 1.75004 5.83331 1.75004C8.08863 1.75004 9.91665 3.57821 9.91665 5.83337C9.91665 8.08854 8.08863 9.91671 5.83331 9.91671Z" fill="#C6A87D"/>
</g>
<defs>
<clipPath id="clip0_314_46">
<rect width="14" height="14" fill="white"/>
</clipPath>
</defs>
</svg>
