<svg width="519" height="442" viewBox="0 0 519 442" fill="none" xmlns="http://www.w3.org/2000/svg">
<path fill-rule="evenodd" clip-rule="evenodd" d="M51.4023 0.793213V30.2234L25.9476 44.9385L0.492835 30.2234V0.793213L25.9476 -13.9219L51.4023 0.793213Z" stroke="#C6A87D" stroke-width="0.986513" stroke-dasharray="176.65 177.14"/>
<path fill-rule="evenodd" clip-rule="evenodd" d="M103.297 0.793213V30.2234L77.8426 44.9385L52.3879 30.2234V0.793213L77.8426 -13.9219L103.297 0.793213Z" stroke="#C6A87D" stroke-width="0.986513" stroke-dasharray="176.65 177.14"/>
<path fill-rule="evenodd" clip-rule="evenodd" d="M155.192 0.793213V30.2234L129.738 44.9385L104.283 30.2234V0.793213L129.738 -13.9219L155.192 0.793213Z" stroke="#C6A87D" stroke-width="0.986513" stroke-dasharray="176.65 177.14"/>
<path fill-rule="evenodd" clip-rule="evenodd" d="M207.087 0.793213V30.2234L181.633 44.9385L156.178 30.2234V0.793213L181.633 -13.9219L207.087 0.793213Z" stroke="#C6A87D" stroke-width="0.986513" stroke-dasharray="176.65 177.14"/>
<path fill-rule="evenodd" clip-rule="evenodd" d="M258.982 0.793213V30.2234L233.527 44.9385L208.073 30.2234V0.793213L233.527 -13.9219L258.982 0.793213Z" stroke="#C6A87D" stroke-width="0.986513" stroke-dasharray="176.65 177.14"/>
<path fill-rule="evenodd" clip-rule="evenodd" d="M310.877 0.793213V30.2234L285.422 44.9385L259.968 30.2234V0.793213L285.422 -13.9219L310.877 0.793213Z" stroke="#C6A87D" stroke-width="0.986513" stroke-dasharray="176.65 177.14"/>
<path fill-rule="evenodd" clip-rule="evenodd" d="M362.772 0.793213V30.2234L337.317 44.9385L311.863 30.2234V0.793213L337.317 -13.9219L362.772 0.793213Z" stroke="#C6A87D" stroke-width="0.986513" stroke-dasharray="176.65 177.14"/>
<path fill-rule="evenodd" clip-rule="evenodd" d="M414.667 0.793213V30.2234L389.212 44.9385L363.757 30.2234V0.793213L389.212 -13.9219L414.667 0.793213Z" stroke="#C6A87D" stroke-width="0.986513" stroke-dasharray="176.65 177.14"/>
<path fill-rule="evenodd" clip-rule="evenodd" d="M466.562 0.793213V30.2234L441.107 44.9385L415.652 30.2234V0.793213L441.107 -13.9219L466.562 0.793213Z" stroke="#C6A87D" stroke-width="0.986513" stroke-dasharray="176.65 177.14"/>
<path fill-rule="evenodd" clip-rule="evenodd" d="M518.457 0.793213V30.2234L493.002 44.9385L467.547 30.2234V0.793213L493.002 -13.9219L518.457 0.793213Z" stroke="#C6A87D" stroke-width="0.986513" stroke-dasharray="176.65 177.14"/>
<path fill-rule="evenodd" clip-rule="evenodd" d="M77.3492 45.0391V74.4692L51.8945 89.1843L26.4397 74.4692V45.0391L51.8945 30.324L77.3492 45.0391Z" stroke="#C6A87D" stroke-width="0.986513" stroke-dasharray="176.65 177.14"/>
<path d="M0.257511 30.645L26.2538 45.0772L25.9964 74.4571L0.257511 88.8893" stroke="#C6A87D" stroke-width="0.999364" stroke-dasharray="88.85 89.35"/>
<path fill-rule="evenodd" clip-rule="evenodd" d="M129.244 45.0391V74.4692L103.79 89.1843L78.3348 74.4692V45.0391L103.79 30.324L129.244 45.0391Z" stroke="#C6A87D" stroke-width="0.986513" stroke-dasharray="176.65 177.14"/>
<path fill-rule="evenodd" clip-rule="evenodd" d="M181.139 45.0391V74.4692L155.685 89.1843L130.23 74.4692V45.0391L155.685 30.324L181.139 45.0391Z" stroke="#C6A87D" stroke-width="0.986513" stroke-dasharray="176.65 177.14"/>
<path fill-rule="evenodd" clip-rule="evenodd" d="M233.034 45.0391V74.4692L207.579 89.1843L182.125 74.4692V45.0391L207.579 30.324L233.034 45.0391Z" stroke="#C6A87D" stroke-width="0.986513" stroke-dasharray="176.65 177.14"/>
<path fill-rule="evenodd" clip-rule="evenodd" d="M284.929 45.0391V74.4692L259.474 89.1843L234.02 74.4692V45.0391L259.474 30.324L284.929 45.0391Z" stroke="#C6A87D" stroke-width="0.986513" stroke-dasharray="176.65 177.14"/>
<path fill-rule="evenodd" clip-rule="evenodd" d="M336.824 45.0391V74.4692L311.369 89.1843L285.915 74.4692V45.0391L311.369 30.324L336.824 45.0391Z" stroke="#C6A87D" stroke-width="0.986513" stroke-dasharray="176.65 177.14"/>
<path fill-rule="evenodd" clip-rule="evenodd" d="M388.719 45.0391V74.4692L363.264 89.1843L337.809 74.4692V45.0391L363.264 30.324L388.719 45.0391Z" stroke="#C6A87D" stroke-width="0.986513" stroke-dasharray="176.65 177.14"/>
<path fill-rule="evenodd" clip-rule="evenodd" d="M440.614 45.0391V74.4692L415.159 89.1843L389.705 74.4692V45.0391L415.159 30.324L440.614 45.0391Z" stroke="#C6A87D" stroke-width="0.986513" stroke-dasharray="176.65 177.14"/>
<path fill-rule="evenodd" clip-rule="evenodd" d="M492.509 45.0391V74.4692L467.054 89.1843L441.599 74.4692V45.0391L467.054 30.324L492.509 45.0391Z" stroke="#C6A87D" stroke-width="0.986513" stroke-dasharray="176.65 177.14"/>
<path d="M518.79 30.1342L493.189 45.2808L492.996 74.2149L519.371 88.9732" stroke="#C6A87D" stroke-width="0.999364" stroke-dasharray="89.1 89.6"/>
<path fill-rule="evenodd" clip-rule="evenodd" d="M51.4023 89.0393V118.469L25.9476 133.185L0.492835 118.469V89.0393L25.9476 74.3242L51.4023 89.0393Z" stroke="#C6A87D" stroke-width="0.986513" stroke-dasharray="176.65 177.14"/>
<path fill-rule="evenodd" clip-rule="evenodd" d="M103.297 89.0393V118.469L77.8426 133.185L52.3879 118.469V89.0393L77.8426 74.3242L103.297 89.0393Z" stroke="#C6A87D" stroke-width="0.986513" stroke-dasharray="176.65 177.14"/>
<path fill-rule="evenodd" clip-rule="evenodd" d="M155.192 89.0393V118.469L129.738 133.185L104.283 118.469V89.0393L129.738 74.3242L155.192 89.0393Z" stroke="#C6A87D" stroke-width="0.986513" stroke-dasharray="176.65 177.14"/>
<path fill-rule="evenodd" clip-rule="evenodd" d="M207.087 89.0393V118.469L181.633 133.185L156.178 118.469V89.0393L181.633 74.3242L207.087 89.0393Z" stroke="#C6A87D" stroke-width="0.986513" stroke-dasharray="176.65 177.14"/>
<path fill-rule="evenodd" clip-rule="evenodd" d="M258.982 89.0393V118.469L233.527 133.185L208.073 118.469V89.0393L233.527 74.3242L258.982 89.0393Z" stroke="#C6A87D" stroke-width="0.986513" stroke-dasharray="176.65 177.14"/>
<path fill-rule="evenodd" clip-rule="evenodd" d="M310.877 89.0393V118.469L285.422 133.185L259.968 118.469V89.0393L285.422 74.3242L310.877 89.0393Z" stroke="#C6A87D" stroke-width="0.986513" stroke-dasharray="176.65 177.14"/>
<path fill-rule="evenodd" clip-rule="evenodd" d="M362.772 89.0393V118.469L337.317 133.185L311.863 118.469V89.0393L337.317 74.3242L362.772 89.0393Z" stroke="#C6A87D" stroke-width="0.986513" stroke-dasharray="176.65 177.14"/>
<path fill-rule="evenodd" clip-rule="evenodd" d="M414.667 89.0393V118.469L389.212 133.185L363.757 118.469V89.0393L389.212 74.3242L414.667 89.0393Z" stroke="#C6A87D" stroke-width="0.986513" stroke-dasharray="176.65 177.14"/>
<path fill-rule="evenodd" clip-rule="evenodd" d="M466.562 89.0393V118.469L441.107 133.185L415.652 118.469V89.0393L441.107 74.3242L466.562 89.0393Z" stroke="#C6A87D" stroke-width="0.986513" stroke-dasharray="176.65 177.14"/>
<path fill-rule="evenodd" clip-rule="evenodd" d="M518.457 89.0393V118.469L493.002 133.185L467.547 118.469V89.0393L493.002 74.3242L518.457 89.0393Z" stroke="#C6A87D" stroke-width="0.986513" stroke-dasharray="176.65 177.14"/>
<path fill-rule="evenodd" clip-rule="evenodd" d="M77.3492 133.285V162.715L51.8945 177.43L26.4397 162.715V133.285L51.8945 118.57L77.3492 133.285Z" stroke="#C6A87D" stroke-width="0.986513" stroke-dasharray="176.65 177.14"/>
<path d="M0.257511 118.891L26.2538 133.323L25.9964 162.703L0.257511 177.135" stroke="#C6A87D" stroke-width="0.999364" stroke-dasharray="88.85 89.35"/>
<path fill-rule="evenodd" clip-rule="evenodd" d="M129.244 133.285V162.715L103.79 177.43L78.3348 162.715V133.285L103.79 118.57L129.244 133.285Z" stroke="#C6A87D" stroke-width="0.986513" stroke-dasharray="176.65 177.14"/>
<path fill-rule="evenodd" clip-rule="evenodd" d="M181.139 133.285V162.715L155.685 177.43L130.23 162.715V133.285L155.685 118.57L181.139 133.285Z" stroke="#C6A87D" stroke-width="0.986513" stroke-dasharray="176.65 177.14"/>
<path fill-rule="evenodd" clip-rule="evenodd" d="M233.034 133.285V162.715L207.579 177.43L182.125 162.715V133.285L207.579 118.57L233.034 133.285Z" stroke="#C6A87D" stroke-width="0.986513" stroke-dasharray="176.65 177.14"/>
<path fill-rule="evenodd" clip-rule="evenodd" d="M284.929 133.285V162.715L259.474 177.43L234.02 162.715V133.285L259.474 118.57L284.929 133.285Z" stroke="#C6A87D" stroke-width="0.986513" stroke-dasharray="176.65 177.14"/>
<path fill-rule="evenodd" clip-rule="evenodd" d="M336.824 133.285V162.715L311.369 177.43L285.915 162.715V133.285L311.369 118.57L336.824 133.285Z" stroke="#C6A87D" stroke-width="0.986513" stroke-dasharray="176.65 177.14"/>
<path fill-rule="evenodd" clip-rule="evenodd" d="M388.719 133.285V162.715L363.264 177.43L337.809 162.715V133.285L363.264 118.57L388.719 133.285Z" stroke="#C6A87D" stroke-width="0.986513" stroke-dasharray="176.65 177.14"/>
<path fill-rule="evenodd" clip-rule="evenodd" d="M440.614 133.285V162.715L415.159 177.43L389.705 162.715V133.285L415.159 118.57L440.614 133.285Z" stroke="#C6A87D" stroke-width="0.986513" stroke-dasharray="176.65 177.14"/>
<path fill-rule="evenodd" clip-rule="evenodd" d="M492.509 133.285V162.715L467.054 177.43L441.599 162.715V133.285L467.054 118.57L492.509 133.285Z" stroke="#C6A87D" stroke-width="0.986513" stroke-dasharray="176.65 177.14"/>
<path d="M518.79 118.38L493.189 133.527L492.996 162.461L519.371 177.219" stroke="#C6A87D" stroke-width="0.999364" stroke-dasharray="89.1 89.6"/>
<path fill-rule="evenodd" clip-rule="evenodd" d="M51.4023 177.039V206.469L25.9476 221.184L0.492835 206.469V177.039L25.9476 162.324L51.4023 177.039Z" stroke="#C6A87D" stroke-width="0.986513" stroke-dasharray="176.65 177.14"/>
<path fill-rule="evenodd" clip-rule="evenodd" d="M103.297 177.039V206.469L77.8426 221.184L52.3879 206.469V177.039L77.8426 162.324L103.297 177.039Z" stroke="#C6A87D" stroke-width="0.986513" stroke-dasharray="176.65 177.14"/>
<path fill-rule="evenodd" clip-rule="evenodd" d="M155.192 177.039V206.469L129.738 221.184L104.283 206.469V177.039L129.738 162.324L155.192 177.039Z" stroke="#C6A87D" stroke-width="0.986513" stroke-dasharray="176.65 177.14"/>
<path fill-rule="evenodd" clip-rule="evenodd" d="M207.087 177.039V206.469L181.633 221.184L156.178 206.469V177.039L181.633 162.324L207.087 177.039Z" stroke="#C6A87D" stroke-width="0.986513" stroke-dasharray="176.65 177.14"/>
<path fill-rule="evenodd" clip-rule="evenodd" d="M258.982 177.039V206.469L233.527 221.184L208.073 206.469V177.039L233.527 162.324L258.982 177.039Z" stroke="#C6A87D" stroke-width="0.986513" stroke-dasharray="176.65 177.14"/>
<path fill-rule="evenodd" clip-rule="evenodd" d="M310.877 177.039V206.469L285.422 221.184L259.968 206.469V177.039L285.422 162.324L310.877 177.039Z" stroke="#C6A87D" stroke-width="0.986513" stroke-dasharray="176.65 177.14"/>
<path fill-rule="evenodd" clip-rule="evenodd" d="M362.772 177.039V206.469L337.317 221.184L311.863 206.469V177.039L337.317 162.324L362.772 177.039Z" stroke="#C6A87D" stroke-width="0.986513" stroke-dasharray="176.65 177.14"/>
<path fill-rule="evenodd" clip-rule="evenodd" d="M414.667 177.039V206.469L389.212 221.184L363.757 206.469V177.039L389.212 162.324L414.667 177.039Z" stroke="#C6A87D" stroke-width="0.986513" stroke-dasharray="176.65 177.14"/>
<path fill-rule="evenodd" clip-rule="evenodd" d="M466.562 177.039V206.469L441.107 221.184L415.652 206.469V177.039L441.107 162.324L466.562 177.039Z" stroke="#C6A87D" stroke-width="0.986513" stroke-dasharray="176.65 177.14"/>
<path fill-rule="evenodd" clip-rule="evenodd" d="M518.457 177.039V206.469L493.002 221.184L467.547 206.469V177.039L493.002 162.324L518.457 177.039Z" stroke="#C6A87D" stroke-width="0.986513" stroke-dasharray="176.65 177.14"/>
<path fill-rule="evenodd" clip-rule="evenodd" d="M77.3492 221.285V250.715L51.8945 265.43L26.4397 250.715V221.285L51.8945 206.57L77.3492 221.285Z" stroke="#C6A87D" stroke-width="0.986513" stroke-dasharray="176.65 177.14"/>
<path d="M0.257511 206.891L26.2538 221.323L25.9964 250.703L0.257511 265.135" stroke="#C6A87D" stroke-width="0.999364" stroke-dasharray="88.85 89.35"/>
<path fill-rule="evenodd" clip-rule="evenodd" d="M129.244 221.285V250.715L103.79 265.43L78.3348 250.715V221.285L103.79 206.57L129.244 221.285Z" stroke="#C6A87D" stroke-width="0.986513" stroke-dasharray="176.65 177.14"/>
<path fill-rule="evenodd" clip-rule="evenodd" d="M181.139 221.285V250.715L155.685 265.43L130.23 250.715V221.285L155.685 206.57L181.139 221.285Z" stroke="#C6A87D" stroke-width="0.986513" stroke-dasharray="176.65 177.14"/>
<path fill-rule="evenodd" clip-rule="evenodd" d="M233.034 221.285V250.715L207.579 265.43L182.125 250.715V221.285L207.579 206.57L233.034 221.285Z" stroke="#C6A87D" stroke-width="0.986513" stroke-dasharray="176.65 177.14"/>
<path fill-rule="evenodd" clip-rule="evenodd" d="M284.929 221.285V250.715L259.474 265.43L234.02 250.715V221.285L259.474 206.57L284.929 221.285Z" stroke="#C6A87D" stroke-width="0.986513" stroke-dasharray="176.65 177.14"/>
<path fill-rule="evenodd" clip-rule="evenodd" d="M336.824 221.285V250.715L311.369 265.43L285.915 250.715V221.285L311.369 206.57L336.824 221.285Z" stroke="#C6A87D" stroke-width="0.986513" stroke-dasharray="176.65 177.14"/>
<path fill-rule="evenodd" clip-rule="evenodd" d="M388.719 221.285V250.715L363.264 265.43L337.809 250.715V221.285L363.264 206.57L388.719 221.285Z" stroke="#C6A87D" stroke-width="0.986513" stroke-dasharray="176.65 177.14"/>
<path fill-rule="evenodd" clip-rule="evenodd" d="M440.614 221.285V250.715L415.159 265.43L389.705 250.715V221.285L415.159 206.57L440.614 221.285Z" stroke="#C6A87D" stroke-width="0.986513" stroke-dasharray="176.65 177.14"/>
<path fill-rule="evenodd" clip-rule="evenodd" d="M492.509 221.285V250.715L467.054 265.43L441.599 250.715V221.285L467.054 206.57L492.509 221.285Z" stroke="#C6A87D" stroke-width="0.986513" stroke-dasharray="176.65 177.14"/>
<path d="M518.79 206.38L493.189 221.527L492.996 250.461L519.371 265.219" stroke="#C6A87D" stroke-width="0.999364" stroke-dasharray="89.1 89.6"/>
<path fill-rule="evenodd" clip-rule="evenodd" d="M51.4023 265.039V294.469L25.9476 309.184L0.492835 294.469V265.039L25.9476 250.324L51.4023 265.039Z" stroke="#C6A87D" stroke-width="0.986513" stroke-dasharray="176.65 177.14"/>
<path fill-rule="evenodd" clip-rule="evenodd" d="M103.297 265.039V294.469L77.8426 309.184L52.3879 294.469V265.039L77.8426 250.324L103.297 265.039Z" stroke="#C6A87D" stroke-width="0.986513" stroke-dasharray="176.65 177.14"/>
<path fill-rule="evenodd" clip-rule="evenodd" d="M155.192 265.039V294.469L129.738 309.184L104.283 294.469V265.039L129.738 250.324L155.192 265.039Z" stroke="#C6A87D" stroke-width="0.986513" stroke-dasharray="176.65 177.14"/>
<path fill-rule="evenodd" clip-rule="evenodd" d="M207.087 265.039V294.469L181.633 309.184L156.178 294.469V265.039L181.633 250.324L207.087 265.039Z" stroke="#C6A87D" stroke-width="0.986513" stroke-dasharray="176.65 177.14"/>
<path fill-rule="evenodd" clip-rule="evenodd" d="M258.982 265.039V294.469L233.527 309.184L208.073 294.469V265.039L233.527 250.324L258.982 265.039Z" stroke="#C6A87D" stroke-width="0.986513" stroke-dasharray="176.65 177.14"/>
<path fill-rule="evenodd" clip-rule="evenodd" d="M310.877 265.039V294.469L285.422 309.184L259.968 294.469V265.039L285.422 250.324L310.877 265.039Z" stroke="#C6A87D" stroke-width="0.986513" stroke-dasharray="176.65 177.14"/>
<path fill-rule="evenodd" clip-rule="evenodd" d="M362.772 265.039V294.469L337.317 309.184L311.863 294.469V265.039L337.317 250.324L362.772 265.039Z" stroke="#C6A87D" stroke-width="0.986513" stroke-dasharray="176.65 177.14"/>
<path fill-rule="evenodd" clip-rule="evenodd" d="M414.667 265.039V294.469L389.212 309.184L363.757 294.469V265.039L389.212 250.324L414.667 265.039Z" stroke="#C6A87D" stroke-width="0.986513" stroke-dasharray="176.65 177.14"/>
<path fill-rule="evenodd" clip-rule="evenodd" d="M466.562 265.039V294.469L441.107 309.184L415.652 294.469V265.039L441.107 250.324L466.562 265.039Z" stroke="#C6A87D" stroke-width="0.986513" stroke-dasharray="176.65 177.14"/>
<path fill-rule="evenodd" clip-rule="evenodd" d="M518.457 265.039V294.469L493.002 309.184L467.547 294.469V265.039L493.002 250.324L518.457 265.039Z" stroke="#C6A87D" stroke-width="0.986513" stroke-dasharray="176.65 177.14"/>
<path fill-rule="evenodd" clip-rule="evenodd" d="M77.3492 309.285V338.715L51.8945 353.43L26.4397 338.715V309.285L51.8945 294.57L77.3492 309.285Z" stroke="#C6A87D" stroke-width="0.986513" stroke-dasharray="176.65 177.14"/>
<path d="M0.257511 294.891L26.2538 309.323L25.9964 338.703L0.257511 353.135" stroke="#C6A87D" stroke-width="0.999364" stroke-dasharray="88.85 89.35"/>
<path fill-rule="evenodd" clip-rule="evenodd" d="M129.244 309.285V338.715L103.79 353.43L78.3348 338.715V309.285L103.79 294.57L129.244 309.285Z" stroke="#C6A87D" stroke-width="0.986513" stroke-dasharray="176.65 177.14"/>
<path fill-rule="evenodd" clip-rule="evenodd" d="M181.139 309.285V338.715L155.685 353.43L130.23 338.715V309.285L155.685 294.57L181.139 309.285Z" stroke="#C6A87D" stroke-width="0.986513" stroke-dasharray="176.65 177.14"/>
<path fill-rule="evenodd" clip-rule="evenodd" d="M233.034 309.285V338.715L207.579 353.43L182.125 338.715V309.285L207.579 294.57L233.034 309.285Z" stroke="#C6A87D" stroke-width="0.986513" stroke-dasharray="176.65 177.14"/>
<path fill-rule="evenodd" clip-rule="evenodd" d="M284.929 309.285V338.715L259.474 353.43L234.02 338.715V309.285L259.474 294.57L284.929 309.285Z" stroke="#C6A87D" stroke-width="0.986513" stroke-dasharray="176.65 177.14"/>
<path fill-rule="evenodd" clip-rule="evenodd" d="M336.824 309.285V338.715L311.369 353.43L285.915 338.715V309.285L311.369 294.57L336.824 309.285Z" stroke="#C6A87D" stroke-width="0.986513" stroke-dasharray="176.65 177.14"/>
<path fill-rule="evenodd" clip-rule="evenodd" d="M388.719 309.285V338.715L363.264 353.43L337.809 338.715V309.285L363.264 294.57L388.719 309.285Z" stroke="#C6A87D" stroke-width="0.986513" stroke-dasharray="176.65 177.14"/>
<path fill-rule="evenodd" clip-rule="evenodd" d="M440.614 309.285V338.715L415.159 353.43L389.705 338.715V309.285L415.159 294.57L440.614 309.285Z" stroke="#C6A87D" stroke-width="0.986513" stroke-dasharray="176.65 177.14"/>
<path fill-rule="evenodd" clip-rule="evenodd" d="M492.509 309.285V338.715L467.054 353.43L441.599 338.715V309.285L467.054 294.57L492.509 309.285Z" stroke="#C6A87D" stroke-width="0.986513" stroke-dasharray="176.65 177.14"/>
<path d="M518.79 294.38L493.189 309.527L492.996 338.461L519.371 353.219" stroke="#C6A87D" stroke-width="0.999364" stroke-dasharray="89.1 89.6"/>
<path fill-rule="evenodd" clip-rule="evenodd" d="M51.4023 353.039V382.469L25.9476 397.184L0.492835 382.469V353.039L25.9476 338.324L51.4023 353.039Z" stroke="#C6A87D" stroke-width="0.986513" stroke-dasharray="176.65 177.14"/>
<path fill-rule="evenodd" clip-rule="evenodd" d="M103.297 353.039V382.469L77.8426 397.184L52.3879 382.469V353.039L77.8426 338.324L103.297 353.039Z" stroke="#C6A87D" stroke-width="0.986513" stroke-dasharray="176.65 177.14"/>
<path fill-rule="evenodd" clip-rule="evenodd" d="M155.192 353.039V382.469L129.738 397.184L104.283 382.469V353.039L129.738 338.324L155.192 353.039Z" stroke="#C6A87D" stroke-width="0.986513" stroke-dasharray="176.65 177.14"/>
<path fill-rule="evenodd" clip-rule="evenodd" d="M207.087 353.039V382.469L181.633 397.184L156.178 382.469V353.039L181.633 338.324L207.087 353.039Z" stroke="#C6A87D" stroke-width="0.986513" stroke-dasharray="176.65 177.14"/>
<path fill-rule="evenodd" clip-rule="evenodd" d="M258.982 353.039V382.469L233.527 397.184L208.073 382.469V353.039L233.527 338.324L258.982 353.039Z" stroke="#C6A87D" stroke-width="0.986513" stroke-dasharray="176.65 177.14"/>
<path fill-rule="evenodd" clip-rule="evenodd" d="M310.877 353.039V382.469L285.422 397.184L259.968 382.469V353.039L285.422 338.324L310.877 353.039Z" stroke="#C6A87D" stroke-width="0.986513" stroke-dasharray="176.65 177.14"/>
<path fill-rule="evenodd" clip-rule="evenodd" d="M362.772 353.039V382.469L337.317 397.184L311.863 382.469V353.039L337.317 338.324L362.772 353.039Z" stroke="#C6A87D" stroke-width="0.986513" stroke-dasharray="176.65 177.14"/>
<path fill-rule="evenodd" clip-rule="evenodd" d="M414.667 353.039V382.469L389.212 397.184L363.757 382.469V353.039L389.212 338.324L414.667 353.039Z" stroke="#C6A87D" stroke-width="0.986513" stroke-dasharray="176.65 177.14"/>
<path fill-rule="evenodd" clip-rule="evenodd" d="M466.562 353.039V382.469L441.107 397.184L415.652 382.469V353.039L441.107 338.324L466.562 353.039Z" stroke="#C6A87D" stroke-width="0.986513" stroke-dasharray="176.65 177.14"/>
<path fill-rule="evenodd" clip-rule="evenodd" d="M518.457 353.039V382.469L493.002 397.184L467.547 382.469V353.039L493.002 338.324L518.457 353.039Z" stroke="#C6A87D" stroke-width="0.986513" stroke-dasharray="176.65 177.14"/>
<path fill-rule="evenodd" clip-rule="evenodd" d="M77.3492 397.285V426.715L51.8945 441.43L26.4397 426.715V397.285L51.8945 382.57L77.3492 397.285Z" stroke="#C6A87D" stroke-width="0.986513" stroke-dasharray="176.65 177.14"/>
<path d="M0.257511 382.891L26.2538 397.323L25.9964 426.703L0.257511 441.135" stroke="#C6A87D" stroke-width="0.999364" stroke-dasharray="88.85 89.35"/>
<path fill-rule="evenodd" clip-rule="evenodd" d="M129.244 397.285V426.715L103.79 441.43L78.3348 426.715V397.285L103.79 382.57L129.244 397.285Z" stroke="#C6A87D" stroke-width="0.986513" stroke-dasharray="176.65 177.14"/>
<path fill-rule="evenodd" clip-rule="evenodd" d="M181.139 397.285V426.715L155.685 441.43L130.23 426.715V397.285L155.685 382.57L181.139 397.285Z" stroke="#C6A87D" stroke-width="0.986513" stroke-dasharray="176.65 177.14"/>
<path fill-rule="evenodd" clip-rule="evenodd" d="M233.034 397.285V426.715L207.579 441.43L182.125 426.715V397.285L207.579 382.57L233.034 397.285Z" stroke="#C6A87D" stroke-width="0.986513" stroke-dasharray="176.65 177.14"/>
<path fill-rule="evenodd" clip-rule="evenodd" d="M284.929 397.285V426.715L259.474 441.43L234.02 426.715V397.285L259.474 382.57L284.929 397.285Z" stroke="#C6A87D" stroke-width="0.986513" stroke-dasharray="176.65 177.14"/>
<path fill-rule="evenodd" clip-rule="evenodd" d="M336.824 397.285V426.715L311.369 441.43L285.915 426.715V397.285L311.369 382.57L336.824 397.285Z" stroke="#C6A87D" stroke-width="0.986513" stroke-dasharray="176.65 177.14"/>
<path fill-rule="evenodd" clip-rule="evenodd" d="M388.719 397.285V426.715L363.264 441.43L337.809 426.715V397.285L363.264 382.57L388.719 397.285Z" stroke="#C6A87D" stroke-width="0.986513" stroke-dasharray="176.65 177.14"/>
<path fill-rule="evenodd" clip-rule="evenodd" d="M440.614 397.285V426.715L415.159 441.43L389.705 426.715V397.285L415.159 382.57L440.614 397.285Z" stroke="#C6A87D" stroke-width="0.986513" stroke-dasharray="176.65 177.14"/>
<path fill-rule="evenodd" clip-rule="evenodd" d="M492.509 397.285V426.715L467.054 441.43L441.599 426.715V397.285L467.054 382.57L492.509 397.285Z" stroke="#C6A87D" stroke-width="0.986513" stroke-dasharray="176.65 177.14"/>
<path d="M518.79 382.38L493.189 397.526L492.996 426.46L519.371 441.219" stroke="#C6A87D" stroke-width="0.999364" stroke-dasharray="89.1 89.6"/>
</svg>
