<svg width="705" height="801" viewBox="0 0 705 801" fill="none" xmlns="http://www.w3.org/2000/svg">
<path d="M413.158 0.140626C406.033 1.45313 400.721 7.45312 400.158 14.6406L397.158 50.6406H299.658L296.158 15.1406C295.096 6.89063 287.971 0.828126 279.658 1.14063L162.158 6.14063C157.721 6.39063 153.596 8.45312 150.721 11.8906C147.908 15.2656 146.596 19.7031 147.158 24.1406L150.658 57.1406L43.1583 76.6406C34.7207 78.1406 28.9707 86.1406 30.1583 94.6406L59.1583 288.141H16.1583C15.6583 288.141 15.1583 288.141 14.6583 288.141C9.84576 288.516 5.47075 291.078 2.78326 295.078C0.0957565 299.016 -0.716739 304.016 0.658253 308.641L135.158 788.641C137.158 795.516 143.471 800.203 150.658 800.141H553.658C560.846 800.203 567.158 795.516 569.158 788.641L703.658 308.641C705.096 303.766 704.096 298.516 701.096 294.516C698.033 290.453 693.221 288.078 688.158 288.141H638.658L665.158 144.141C666.033 139.766 664.971 135.203 662.346 131.578C659.658 127.953 655.596 125.641 651.158 125.141L540.658 113.141L548.158 30.6406C548.783 22.1406 542.596 14.7031 534.158 13.6406L417.658 0.140626C416.158 -0.0468752 414.658 -0.0468752 413.158 0.140626ZM265.658 33.6406L306.658 427.641C265.408 419.328 236.346 400.328 215.158 379.141L184.158 73.1406C184.158 72.8281 184.158 72.4531 184.158 72.1406V71.1406C184.221 69.0781 183.846 67.0781 183.158 65.1406L180.658 37.6406L265.658 33.6406ZM430.158 34.1406L515.158 43.6406L483.158 384.641C462.658 403.391 435.783 419.953 398.658 427.641L430.158 34.1406ZM303.158 82.6406H394.658L366.658 431.141C361.846 431.391 357.221 432.141 352.158 432.141C347.658 432.141 343.471 431.891 339.158 431.641L303.158 82.6406ZM153.658 89.1406L178.158 327.641C170.096 311.766 166.158 300.141 166.158 300.141C164.346 293.078 157.971 288.141 150.658 288.141H91.6583L64.1583 105.141L153.658 89.1406ZM537.658 144.641L630.658 155.141L606.158 288.141H553.658C546.346 288.141 539.971 293.078 538.158 300.141C538.158 300.141 533.096 317.766 519.158 340.641L537.658 144.641ZM37.1583 320.141H139.658C144.096 332.828 153.721 357.328 178.158 386.641C180.283 389.203 182.846 391.578 185.158 394.141C185.158 394.328 185.158 394.453 185.158 394.641C186.658 398.641 189.721 401.891 193.658 403.641C193.721 403.703 194.096 403.578 194.158 403.641C227.721 435.891 278.846 464.141 352.158 464.141C438.283 464.141 493.846 425.391 526.158 386.641C550.596 357.328 560.221 332.828 564.658 320.141H667.158L541.158 768.141H163.158L37.1583 320.141Z" fill="#C6A87D"/>
</svg>
