<svg width="128" height="128" viewBox="0 0 128 128" fill="none" xmlns="http://www.w3.org/2000/svg">
<g clip-path="url(#clip0_328_4)">
<path d="M126.74 40.767C124.1 28.263 114.227 13.447 98.788 10.466C94.9959 9.77297 91.1 9.89211 87.3574 10.8155C83.6148 11.7389 80.1105 13.4456 77.076 15.823C73.6256 18.4102 70.8271 21.7675 68.9034 25.6273C66.9798 29.4872 65.9841 33.7429 65.9958 38.0556C66.0074 42.3682 67.0261 46.6185 68.9706 50.4679C70.9151 54.3173 73.7317 57.6594 77.196 60.228C80.7577 63.004 84.9529 64.8523 89.4052 65.607C93.8574 66.3617 98.4274 65.9992 102.705 64.552C102.912 64.4769 103.135 64.4545 103.354 64.487C103.572 64.5195 103.778 64.6057 103.955 64.738C104.136 64.8738 104.28 65.0525 104.375 65.258C104.469 65.4634 104.511 65.6892 104.497 65.915C103.248 93.555 78.46 104.361 73.503 106.247C72.7262 106.542 72.073 107.092 71.6508 107.808C71.2286 108.523 71.0625 109.361 71.18 110.184C71.18 110.184 71.812 114.825 71.813 114.831C71.898 115.378 72.1037 115.898 72.4152 116.356C72.7266 116.813 73.136 117.195 73.6135 117.474C74.0911 117.753 74.6248 117.923 75.176 117.97C75.7272 118.017 76.2819 117.941 76.8 117.747C133.367 94.783 129.326 53.02 126.74 40.767ZM75.72 113.867L75.179 109.889C81.081 107.594 107.154 95.788 108.496 66.096C108.541 65.2203 108.37 64.347 107.998 63.5529C107.626 62.7589 107.064 62.0685 106.363 61.5426C105.661 61.0166 104.841 60.6713 103.975 60.5369C103.108 60.4025 102.222 60.4832 101.394 60.772C97.7409 62.0014 93.8398 62.3048 90.0406 61.655C86.2414 61.0052 82.6629 59.4225 79.626 57.049C76.6499 54.8529 74.2291 51.9908 72.5574 48.6915C70.8857 45.3922 70.0096 41.7475 69.999 38.0489C69.9884 34.3503 70.8437 30.7006 72.4964 27.3918C74.1492 24.083 76.5535 21.207 79.517 18.994C82.1014 16.9612 85.0878 15.5001 88.2788 14.7071C91.4698 13.9141 94.7927 13.8074 98.028 14.394C111.676 17.03 120.448 30.341 122.824 41.594C125.241 53.048 128.968 92.038 75.721 113.868L75.72 113.867Z" fill="#C6A87D"/>
<path d="M87.293 22.002C87.0478 22.0963 86.8236 22.238 86.6332 22.419C86.4428 22.6 86.2899 22.8168 86.1833 23.0569C86.0766 23.2969 86.0183 23.5557 86.0116 23.8183C86.005 24.0809 86.0501 24.3423 86.1445 24.5875C86.2388 24.8326 86.3806 25.0568 86.5616 25.2472C86.7426 25.4376 86.9593 25.5905 87.1994 25.6972C87.4395 25.8038 87.6982 25.8622 87.9608 25.8688C88.2234 25.8755 88.4848 25.8303 88.73 25.736C88.805 25.706 96.176 22.951 100.463 28.254C100.628 28.4584 100.832 28.6282 101.063 28.7539C101.293 28.8795 101.547 28.9585 101.808 28.9863C102.069 29.014 102.334 28.9901 102.586 28.9157C102.838 28.8414 103.073 28.7181 103.277 28.553C103.481 28.3878 103.651 28.184 103.777 27.9533C103.903 27.7225 103.982 27.4692 104.009 27.2079C104.037 26.9466 104.013 26.6824 103.939 26.4303C103.864 26.1783 103.741 25.9434 103.576 25.739C97.477 18.197 87.706 21.843 87.293 22.002ZM32.788 10.466C28.9959 9.77297 25.1 9.89211 21.3574 10.8155C17.6147 11.7389 14.1105 13.4456 11.076 15.823C7.62559 18.4102 4.82709 21.7675 2.90342 25.6273C0.97975 29.4872 -0.0159173 33.7429 -0.00426287 38.0556C0.00739159 42.3682 1.02605 46.6185 2.97055 50.4679C4.91505 54.3173 7.73166 57.6594 11.196 60.228C14.7577 63.004 18.9529 64.8523 23.4052 65.607C27.8574 66.3617 32.4274 65.9992 36.705 64.552C36.9124 64.4769 37.1353 64.4545 37.3535 64.487C37.5717 64.5195 37.7784 64.6057 37.955 64.738C38.1358 64.8738 38.2801 65.0525 38.3747 65.258C38.4693 65.4634 38.5113 65.6892 38.497 65.915C37.248 93.555 12.46 104.361 7.50299 106.247C6.72623 106.542 6.073 107.092 5.65078 107.808C5.22857 108.523 5.06253 109.361 5.17999 110.184C5.17999 110.184 5.81199 114.825 5.81299 114.831C5.898 115.378 6.1037 115.898 6.41514 116.356C6.72658 116.813 7.13594 117.195 7.61349 117.474C8.09104 117.753 8.62479 117.923 9.17597 117.97C9.72715 118.017 10.2819 117.941 10.8 117.747C67.367 94.783 63.326 53.02 60.74 40.767C58.1 28.263 48.227 13.447 32.788 10.466ZM9.71999 113.868L9.17699 109.889C15.08 107.594 41.153 95.788 42.495 66.096C42.54 65.2203 42.3689 64.347 41.9969 63.5529C41.625 62.7589 41.0634 62.0685 40.3619 61.5426C39.6603 61.0166 38.8401 60.6713 37.9736 60.5369C37.1072 60.4025 36.2209 60.4832 35.393 60.772C31.7399 62.0014 27.8388 62.3048 24.0396 61.655C20.2404 61.0052 16.6618 59.4225 13.625 57.049C10.6489 54.8529 8.22811 51.9908 6.55642 48.6915C4.88473 45.3922 4.00853 41.7475 3.99794 38.0489C3.98735 34.3503 4.84265 30.7006 6.49541 27.3918C8.14818 24.083 10.5525 21.207 13.516 18.994C16.1004 16.9612 19.0868 15.5001 22.2778 14.7071C25.4687 13.9141 28.7917 13.8074 32.027 14.394C45.675 17.03 54.447 30.341 56.823 41.594C59.24 53.048 62.967 92.038 9.71999 113.868Z" fill="#C6A87D"/>
<path d="M21.293 22.002C21.0478 22.0964 20.8236 22.2381 20.6332 22.4191C20.4428 22.6001 20.2899 22.8168 20.1833 23.0569C20.0766 23.297 20.0183 23.5557 20.0117 23.8184C20.005 24.081 20.0501 24.3423 20.1445 24.5875C20.2389 24.8327 20.3806 25.0569 20.5616 25.2473C20.7426 25.4377 20.9593 25.5906 21.1994 25.6972C21.4395 25.8039 21.6982 25.8622 21.9608 25.8689C22.2235 25.8755 22.4848 25.8304 22.73 25.736C22.805 25.706 30.176 22.951 34.463 28.254C34.8043 28.6551 35.2866 28.9098 35.8103 28.9654C36.334 29.0211 36.859 28.8734 37.277 28.553C37.4814 28.388 37.6512 28.1843 37.7769 27.9536C37.9025 27.7229 37.9814 27.4697 38.0092 27.2085C38.037 26.9472 38.013 26.6831 37.9387 26.4311C37.8643 26.1792 37.7411 25.9443 37.576 25.74C31.477 18.197 21.706 21.843 21.293 22.002Z" fill="#C6A87D"/>
</g>
<defs>
<clipPath id="clip0_328_4">
<rect width="128" height="128" fill="white"/>
</clipPath>
</defs>
</svg>
